<svg width="44" height="44" viewBox="0 0 44 44" fill="none" xmlns="http://www.w3.org/2000/svg">
<path d="M35.75 17.4167L34.4476 12.6402C33.9454 10.7984 33.6943 9.87754 33.1793 9.18401C32.6663 8.49334 31.9693 7.96096 31.1681 7.64779C30.3635 7.33334 29.409 7.33334 27.5 7.33334M8.25 17.4167L9.5524 12.6402C10.0546 10.7984 10.3057 9.87754 10.8207 9.18401C11.3336 8.49334 12.0306 7.96096 12.8319 7.64779C13.6365 7.33334 14.591 7.33334 16.5 7.33334" stroke="#BABABA" stroke-width="2"/>
<path d="M16.5 7.33333C16.5 6.32082 17.3208 5.5 18.3333 5.5H25.6667C26.6792 5.5 27.5 6.32082 27.5 7.33333C27.5 8.34585 26.6792 9.16667 25.6667 9.16667H18.3333C17.3208 9.16667 16.5 8.34585 16.5 7.33333Z" stroke="#BABABA" stroke-width="2"/>
<path d="M14.6666 23.8333V31.1667" stroke="#BABABA" stroke-width="2" stroke-linecap="round" stroke-linejoin="round"/>
<path d="M29.3334 23.8333V31.1667" stroke="#BABABA" stroke-width="2" stroke-linecap="round" stroke-linejoin="round"/>
<path d="M22 23.8333V31.1667" stroke="#BABABA" stroke-width="2" stroke-linecap="round" stroke-linejoin="round"/>
<path d="M7.084 30.1679C8.08439 34.1695 8.5846 36.1702 10.0765 37.3351C11.5685 38.5 13.6308 38.5 17.7556 38.5H26.2451C30.3699 38.5 32.4322 38.5 33.9242 37.3351C35.4161 36.1702 35.9163 34.1695 36.9167 30.1679C38.4895 23.8762 39.276 20.7304 37.6246 18.6153C35.9731 16.5 32.7305 16.5 26.2451 16.5H17.7556C11.2703 16.5 8.02771 16.5 6.37617 18.6153C5.40672 19.8568 5.27734 21.4537 5.65396 23.8333" stroke="#BABABA" stroke-width="2" stroke-linecap="round"/>
</svg>
