<svg width="48" height="49" viewBox="0 0 48 49" fill="none" xmlns="http://www.w3.org/2000/svg">
<rect x="2" y="2.5" width="44" height="44" rx="6" stroke="#C41D3E" stroke-width="4"/>
<path d="M21.3594 36.5C20.2865 36.5 19.4688 36.3646 18.9062 36.0938C18.3542 35.8229 17.9792 35.3802 17.7812 34.7656C17.5938 34.151 17.5 33.3333 17.5 32.3125V18.2812C17.5 17.2396 17.5938 16.4167 17.7812 15.8125C17.9792 15.1979 18.3542 14.7604 18.9062 14.5C19.4688 14.2292 20.2865 14.0938 21.3594 14.0938H28.7031C28.9531 14.0938 29.1406 14.1354 29.2656 14.2188C29.5365 14.4062 29.8177 14.6302 30.1094 14.8906C30.401 15.151 30.7083 15.4635 31.0312 15.8281C31.1354 15.9635 31.1875 16.0729 31.1875 16.1562C31.1875 16.25 31.1354 16.3542 31.0312 16.4688C30.7083 16.8333 30.401 17.1458 30.1094 17.4062C29.8177 17.6667 29.5365 17.8906 29.2656 18.0781C29.1198 18.1615 28.9323 18.2031 28.7031 18.2031H24.3281C23.6406 18.2031 23.1719 18.349 22.9219 18.6406C22.6719 18.9323 22.5469 19.4323 22.5469 20.1406V23.1719H28.1562C28.4062 23.1719 28.5938 23.2135 28.7188 23.2969C28.9896 23.4844 29.2708 23.7083 29.5625 23.9688C29.8542 24.2292 30.1615 24.5417 30.4844 24.9062C30.5885 25.0417 30.6406 25.151 30.6406 25.2344C30.6406 25.3281 30.5885 25.4323 30.4844 25.5469C30.1615 25.9115 29.8542 26.224 29.5625 26.4844C29.2708 26.7448 28.9896 26.9688 28.7188 27.1562C28.5729 27.2396 28.3854 27.2812 28.1562 27.2812H22.5469V30.4375C22.5469 31.1354 22.6719 31.6354 22.9219 31.9375C23.1719 32.2396 23.6406 32.3906 24.3281 32.3906H29.2188C29.4688 32.3906 29.6562 32.4323 29.7812 32.5156C30.0521 32.7031 30.3333 32.9271 30.625 33.1875C30.9167 33.4479 31.224 33.7604 31.5469 34.125C31.651 34.2604 31.7031 34.3698 31.7031 34.4531C31.7031 34.5469 31.651 34.651 31.5469 34.7656C31.224 35.1302 30.9167 35.4427 30.625 35.7031C30.3333 35.9635 30.0521 36.1875 29.7812 36.375C29.6354 36.4583 29.4479 36.5 29.2188 36.5H21.3594Z" fill="#C41D3E"/>
</svg>
