<svg width="48" height="49" viewBox="0 0 48 49" fill="none" xmlns="http://www.w3.org/2000/svg">
<rect x="2" y="2.5" width="44" height="44" rx="6" stroke="#F7F7F7" stroke-width="4"/>
<mask id="path-2-outside-1_1_12" maskUnits="userSpaceOnUse" x="13" y="12.5" width="23" height="25" fill="black">
<rect fill="white" x="13" y="12.5" width="23" height="25"/>
<path d="M18.3594 36.5C17.2865 36.5 16.4688 36.3646 15.9062 36.0938C15.3542 35.8229 14.9792 35.3802 14.7812 34.7656C14.5938 34.151 14.5 33.3333 14.5 32.3125V18.2812C14.5 17.2396 14.5938 16.4167 14.7812 15.8125C14.9792 15.1979 15.3542 14.7604 15.9062 14.5C16.4688 14.2292 17.2865 14.0938 18.3594 14.0938H23.1562C25.3958 14.0938 27.3542 14.4271 29.0312 15.0938C30.7188 15.7604 32.0312 16.8906 32.9688 18.4844C33.9062 20.0677 34.375 22.2448 34.375 25.0156C34.375 27.7865 33.9062 30.0156 32.9688 31.7031C32.0312 33.3802 30.7188 34.599 29.0312 35.3594C27.3542 36.1198 25.3958 36.5 23.1562 36.5H18.3594ZM21.3281 18.2031C20.6406 18.2031 20.1719 18.349 19.9219 18.6406C19.6719 18.9323 19.5469 19.4323 19.5469 20.1406V30.4531C19.5469 31.151 19.6719 31.651 19.9219 31.9531C20.1719 32.2552 20.6406 32.4062 21.3281 32.4062H22.0469C24.276 32.4062 26 31.8594 27.2188 30.7656C28.4479 29.6719 29.0625 27.776 29.0625 25.0781C29.0625 23.276 28.7812 21.8802 28.2188 20.8906C27.6667 19.8906 26.8646 19.1927 25.8125 18.7969C24.7604 18.401 23.4948 18.2031 22.0156 18.2031H21.3281Z"/>
</mask>
<path d="M18.3594 36.5C17.2865 36.5 16.4688 36.3646 15.9062 36.0938C15.3542 35.8229 14.9792 35.3802 14.7812 34.7656C14.5938 34.151 14.5 33.3333 14.5 32.3125V18.2812C14.5 17.2396 14.5938 16.4167 14.7812 15.8125C14.9792 15.1979 15.3542 14.7604 15.9062 14.5C16.4688 14.2292 17.2865 14.0938 18.3594 14.0938H23.1562C25.3958 14.0938 27.3542 14.4271 29.0312 15.0938C30.7188 15.7604 32.0312 16.8906 32.9688 18.4844C33.9062 20.0677 34.375 22.2448 34.375 25.0156C34.375 27.7865 33.9062 30.0156 32.9688 31.7031C32.0312 33.3802 30.7188 34.599 29.0312 35.3594C27.3542 36.1198 25.3958 36.5 23.1562 36.5H18.3594ZM21.3281 18.2031C20.6406 18.2031 20.1719 18.349 19.9219 18.6406C19.6719 18.9323 19.5469 19.4323 19.5469 20.1406V30.4531C19.5469 31.151 19.6719 31.651 19.9219 31.9531C20.1719 32.2552 20.6406 32.4062 21.3281 32.4062H22.0469C24.276 32.4062 26 31.8594 27.2188 30.7656C28.4479 29.6719 29.0625 27.776 29.0625 25.0781C29.0625 23.276 28.7812 21.8802 28.2188 20.8906C27.6667 19.8906 26.8646 19.1927 25.8125 18.7969C24.7604 18.401 23.4948 18.2031 22.0156 18.2031H21.3281Z" fill="white"/>
<path d="M15.9062 36.0938L15.4658 36.9916L15.4724 36.9948L15.9062 36.0938ZM14.7812 34.7656L13.8248 35.0574L13.827 35.0648L13.8294 35.0722L14.7812 34.7656ZM14.7812 15.8125L13.8293 15.506L13.8262 15.5161L14.7812 15.8125ZM15.9062 14.5L16.3329 15.4045L16.3401 15.401L15.9062 14.5ZM29.0312 15.0938L28.6618 16.023L28.6638 16.0238L29.0312 15.0938ZM32.9688 18.4844L32.1068 18.9914L32.1083 18.9939L32.9688 18.4844ZM32.9688 31.7031L33.8416 32.1911L33.8429 32.1888L32.9688 31.7031ZM29.0312 35.3594L28.6204 34.4477L28.6183 34.4486L29.0312 35.3594ZM27.2188 30.7656L26.554 30.0186L26.5508 30.0214L27.2188 30.7656ZM28.2188 20.8906L27.3432 21.374L27.3494 21.3848L28.2188 20.8906ZM18.3594 35.5C17.3434 35.5 16.7028 35.3674 16.3401 35.1927L15.4724 36.9948C16.2347 37.3618 17.2295 37.5 18.3594 37.5V35.5ZM16.3467 35.196C16.0515 35.0512 15.8525 34.8298 15.7331 34.4591L13.8294 35.0722C14.1058 35.9306 14.6568 36.5947 15.4658 36.9915L16.3467 35.196ZM15.7377 34.4738C15.5909 33.9926 15.5 33.2853 15.5 32.3125H13.5C13.5 33.3813 13.5966 34.3095 13.8248 35.0574L15.7377 34.4738ZM15.5 32.3125V18.2812H13.5V32.3125H15.5ZM15.5 18.2812C15.5 17.2841 15.5916 16.5752 15.7363 16.1089L13.8262 15.5161C13.5959 16.2581 13.5 17.1951 13.5 18.2812H15.5ZM15.7331 16.119C15.8517 15.7508 16.0468 15.5394 16.3329 15.4044L15.4796 13.5956C14.6615 13.9815 14.1066 14.6451 13.8294 15.506L15.7331 16.119ZM16.3401 15.401C16.7028 15.2263 17.3434 15.0938 18.3594 15.0938V13.0938C17.2295 13.0938 16.2347 13.232 15.4724 13.599L16.3401 15.401ZM18.3594 15.0938H23.1562V13.0938H18.3594V15.0938ZM23.1562 15.0938C25.2988 15.0938 27.1269 15.4128 28.6618 16.023L29.4007 14.1645C27.5814 13.4413 25.4929 13.0938 23.1562 13.0938V15.0938ZM28.6638 16.0238C30.1397 16.6069 31.28 17.5859 32.1068 18.9914L33.8307 17.9774C32.7825 16.1954 31.2978 14.914 29.3987 14.1637L28.6638 16.0238ZM32.1083 18.9939C32.9195 20.3639 33.375 22.3401 33.375 25.0156H35.375C35.375 22.1495 34.893 19.7715 33.8292 17.9749L32.1083 18.9939ZM33.375 25.0156C33.375 27.6859 32.9214 29.7293 32.0946 31.2175L33.8429 32.1888C34.8911 30.302 35.375 27.887 35.375 25.0156H33.375ZM32.0959 31.2152C31.2587 32.7128 30.1046 33.7788 28.6204 34.4477L29.4421 36.2711C31.3329 35.4191 32.8038 34.0477 33.8416 32.1911L32.0959 31.2152ZM28.6183 34.4486C27.0959 35.1389 25.2836 35.5 23.1562 35.5V37.5C25.5081 37.5 27.6125 37.1007 29.4442 36.2701L28.6183 34.4486ZM23.1562 35.5H18.3594V37.5H23.1562V35.5ZM21.3281 17.2031C20.5649 17.2031 19.7085 17.3529 19.1626 17.9898L20.6811 19.2914C20.654 19.3231 20.6539 19.2997 20.758 19.2674C20.8663 19.2337 21.0481 19.2031 21.3281 19.2031V17.2031ZM19.1626 17.9898C18.6712 18.5631 18.5469 19.3717 18.5469 20.1406H20.5469C20.5469 19.8401 20.5739 19.6243 20.6108 19.4769C20.6479 19.3284 20.6856 19.2862 20.6811 19.2914L19.1626 17.9898ZM18.5469 20.1406V30.4531H20.5469V20.1406H18.5469ZM18.5469 30.4531C18.5469 31.2214 18.675 32.0149 19.1515 32.5907L20.6923 31.3156C20.6688 31.2872 20.5469 31.0807 20.5469 30.4531H18.5469ZM19.1515 32.5907C19.6951 33.2475 20.5564 33.4062 21.3281 33.4062V31.4062C21.0506 31.4062 20.8723 31.3749 20.7676 31.3412C20.6684 31.3092 20.6682 31.2864 20.6923 31.3156L19.1515 32.5907ZM21.3281 33.4062H22.0469V31.4062H21.3281V33.4062ZM22.0469 33.4062C24.4327 33.4062 26.427 32.8198 27.8867 31.5099L26.5508 30.0214C25.573 30.8989 24.1194 31.4062 22.0469 31.4062V33.4062ZM27.8835 31.5127C29.4297 30.1368 30.0625 27.8844 30.0625 25.0781H28.0625C28.0625 27.6677 27.4661 29.2069 26.554 30.0186L27.8835 31.5127ZM30.0625 25.0781C30.0625 23.1942 29.7723 21.6 29.0881 20.3965L27.3494 21.3848C27.7902 22.1604 28.0625 23.3579 28.0625 25.0781H30.0625ZM29.0942 20.4073C28.4291 19.2027 27.4434 18.342 26.1646 17.8609L25.4604 19.7328C26.2858 20.0434 26.9042 20.5786 27.3433 21.3739L29.0942 20.4073ZM26.1646 17.8609C24.9707 17.4117 23.5792 17.2031 22.0156 17.2031V19.2031C23.4104 19.2031 24.5502 19.3904 25.4604 19.7328L26.1646 17.8609ZM22.0156 17.2031H21.3281V19.2031H22.0156V17.2031Z" fill="#F7F7F7" mask="url(#path-2-outside-1_1_12)"/>
</svg>
