<svg width="40" height="40" viewBox="0 0 40 40" fill="none" xmlns="http://www.w3.org/2000/svg">
<path fill-rule="evenodd" clip-rule="evenodd" d="M19.9883 8.49485C18.3978 7.09805 16.3055 6.25 14.0133 6.25C9.03537 6.25 5 10.2495 5 15.1831C5 17.455 5.84398 19.5403 7.25332 21.1167L20 33.75L32.3693 21.4907L32.735 21.1052C34.1443 19.5287 35 17.455 35 15.1831C35 10.2495 30.9647 6.25 25.9867 6.25C23.6945 6.25 21.6022 7.09805 20.0117 8.49487L20 8.4833L19.9883 8.49485ZM20 11.8323L20.0915 11.9126L21.5132 10.5035L21.6613 10.3733C22.8113 9.36343 24.322 8.75 25.9867 8.75C29.605 8.75 32.5 11.6512 32.5 15.1831C32.5 16.8022 31.8975 18.279 30.8938 19.4135L30.582 19.7422L20 30.2302L9.07123 19.3985C8.08988 18.2763 7.5 16.8015 7.5 15.1831C7.5 11.6512 10.395 8.75 14.0133 8.75C15.6779 8.75 17.1887 9.36343 18.3387 10.3733L18.4868 10.5034L19.9087 11.9125L20 11.8323Z" fill="#BABABA"/>
</svg>
