<svg width="54" height="44" viewBox="0 0 54 44" fill="none" xmlns="http://www.w3.org/2000/svg">
<path d="M33.5 16.6667C37.1819 16.6667 40.1667 13.6819 40.1667 10C40.1667 6.3181 37.1819 3.33334 33.5 3.33334C29.8181 3.33334 26.8334 6.3181 26.8334 10C26.8334 13.6819 29.8181 16.6667 33.5 16.6667Z" stroke="#BABABA" stroke-width="2"/>
<path d="M21 25.5C24 22.5 26.1362 21.6667 33.5 21.6667C40.8638 21.6667 46.8334 25.0245 46.8334 29.1667C46.8334 33.3088 46.8334 36.6667 33.5 36.6667" stroke="#BABABA" stroke-width="2" stroke-linecap="round"/>
<path d="M20.5 20.6667C24.1819 20.6667 27.1667 17.6819 27.1667 14C27.1667 10.3181 24.1819 7.33334 20.5 7.33334C16.8181 7.33334 13.8334 10.3181 13.8334 14C13.8334 17.6819 16.8181 20.6667 20.5 20.6667Z" stroke="#C41D3E" stroke-width="2"/>
<path d="M33.8291 34C33.8333 33.7263 33.8333 33.4483 33.8333 33.1667C33.8333 29.0245 27.8638 25.6667 20.5 25.6667C13.1362 25.6667 7.16663 29.0245 7.16663 33.1667C7.16663 37.3088 7.16663 40.6667 20.5 40.6667C24.2183 40.6667 26.8996 40.4055 28.8333 39.939" stroke="#C41D3E" stroke-width="2" stroke-linecap="round"/>
</svg>
